<?xml version="1.0" standalone="no"?>
<!DOCTYPE svg PUBLIC "-//W3C//DTD SVG 20010904//EN"
 "http://www.w3.org/TR/2001/REC-SVG-20010904/DTD/svg10.dtd">
<svg version="1.0" xmlns="http://www.w3.org/2000/svg"
 width="700.000000pt" height="700.000000pt" viewBox="0 0 700.000000 700.000000"
 preserveAspectRatio="xMidYMid meet">
<metadata>
Created by potrace 1.14, written by Peter Selinger 2001-2017
</metadata>
<g transform="translate(0.000000,700.000000) scale(0.100000,-0.100000)"
fill="#000000" stroke="none">
<path d="M3170 5648 l0 -1353 -1072 1072 -1073 1073 -232 -233 -233 -232 1073
-1072 1072 -1073 -1353 0 -1352 0 0 -330 0 -330 1352 0 1353 0 -1073 -1073
-1072 -1072 232 -233 233 -232 1072 1072 1073 1073 0 -1353 0 -1352 330 0 330
0 0 1352 0 1353 1068 -1068 c587 -587 1071 -1067 1077 -1067 5 0 112 102 237
227 l228 228 -1072 1072 -1073 1073 1353 0 1352 0 0 330 0 330 -1352 0 -1353
0 1073 1073 1072 1072 -232 233 -233 232 -1072 -1072 -1073 -1073 0 1353 0
1352 -330 0 -330 0 0 -1352z"/>
</g>
</svg>
